<mxfile host="65bd71144e">
    <diagram id="Py_iCrHSi3Z-Z5kQ356O" name="第 1 页">
        <mxGraphModel dx="1347" dy="842" grid="1" gridSize="10" guides="1" tooltips="1" connect="1" arrows="1" fold="1" page="1" pageScale="1" pageWidth="827" pageHeight="1169" math="0" shadow="0">
            <root>
                <mxCell id="0"/>
                <mxCell id="1" parent="0"/>
                <mxCell id="6" value="" style="edgeStyle=none;html=1;" edge="1" parent="1" target="5">
                    <mxGeometry relative="1" as="geometry">
                        <mxPoint x="326.88256227757984" y="205.80071174377213" as="sourcePoint"/>
                    </mxGeometry>
                </mxCell>
                <mxCell id="45" style="edgeStyle=none;html=1;exitX=0.25;exitY=1;exitDx=0;exitDy=0;entryX=0;entryY=0.5;entryDx=0;entryDy=0;" edge="1" parent="1" source="5" target="34">
                    <mxGeometry relative="1" as="geometry">
                        <Array as="points">
                            <mxPoint x="106" y="745"/>
                        </Array>
                    </mxGeometry>
                </mxCell>
                <mxCell id="5" value="监听用户交互开始计时" style="whiteSpace=wrap;html=1;" vertex="1" parent="1">
                    <mxGeometry x="70" y="180" width="144" height="55" as="geometry"/>
                </mxCell>
                <mxCell id="18" value="" style="edgeStyle=none;html=1;" edge="1" parent="1" source="9" target="17">
                    <mxGeometry relative="1" as="geometry"/>
                </mxCell>
                <mxCell id="9" value="获取当前分支名是否匹配" style="rhombus;whiteSpace=wrap;html=1;" vertex="1" parent="1">
                    <mxGeometry x="327" y="180" width="180" height="50" as="geometry"/>
                </mxCell>
                <mxCell id="14" value="有" style="text;html=1;align=center;verticalAlign=middle;resizable=0;points=[];autosize=1;strokeColor=none;fillColor=none;" vertex="1" parent="1">
                    <mxGeometry x="250" y="170" width="40" height="30" as="geometry"/>
                </mxCell>
                <mxCell id="20" value="" style="edgeStyle=none;html=1;" edge="1" parent="1" source="17" target="19">
                    <mxGeometry relative="1" as="geometry"/>
                </mxCell>
                <mxCell id="25" value="" style="edgeStyle=none;html=1;" edge="1" parent="1" source="17" target="24">
                    <mxGeometry relative="1" as="geometry"/>
                </mxCell>
                <mxCell id="17" value="监听开始工作与切换分支事件" style="whiteSpace=wrap;html=1;" vertex="1" parent="1">
                    <mxGeometry x="321" y="440" width="186" height="65" as="geometry"/>
                </mxCell>
                <mxCell id="44" style="edgeStyle=none;html=1;entryX=1;entryY=0.5;entryDx=0;entryDy=0;" edge="1" parent="1" source="19" target="38">
                    <mxGeometry relative="1" as="geometry">
                        <Array as="points">
                            <mxPoint x="715" y="1110"/>
                        </Array>
                    </mxGeometry>
                </mxCell>
                <mxCell id="46" style="edgeStyle=none;html=1;entryX=1;entryY=0.5;entryDx=0;entryDy=0;" edge="1" parent="1" source="19" target="9">
                    <mxGeometry relative="1" as="geometry">
                        <Array as="points">
                            <mxPoint x="715" y="205"/>
                        </Array>
                    </mxGeometry>
                </mxCell>
                <mxCell id="19" value="切换分支" style="rhombus;whiteSpace=wrap;html=1;" vertex="1" parent="1">
                    <mxGeometry x="630" y="432.5" width="170" height="80" as="geometry"/>
                </mxCell>
                <mxCell id="27" style="edgeStyle=none;html=1;exitX=0;exitY=0.5;exitDx=0;exitDy=0;entryX=0.5;entryY=1;entryDx=0;entryDy=0;" edge="1" parent="1" source="24" target="5">
                    <mxGeometry relative="1" as="geometry">
                        <mxPoint x="142" y="365" as="targetPoint"/>
                        <Array as="points">
                            <mxPoint x="140" y="610"/>
                        </Array>
                    </mxGeometry>
                </mxCell>
                <mxCell id="24" value="开始工作" style="rhombus;whiteSpace=wrap;html=1;" vertex="1" parent="1">
                    <mxGeometry x="336" y="577.5" width="154" height="62.5" as="geometry"/>
                </mxCell>
                <mxCell id="32" value="" style="edgeStyle=none;html=1;" edge="1" parent="1" source="31">
                    <mxGeometry relative="1" as="geometry">
                        <mxPoint x="413.8081023454156" y="180.05330490405117" as="targetPoint"/>
                    </mxGeometry>
                </mxCell>
                <mxCell id="31" value="打开编辑器" style="whiteSpace=wrap;html=1;" vertex="1" parent="1">
                    <mxGeometry x="339.5" y="50" width="147" height="50" as="geometry"/>
                </mxCell>
                <mxCell id="37" value="" style="edgeStyle=none;html=1;snapToPoint=1;" edge="1" parent="1" source="33" target="36">
                    <mxGeometry relative="1" as="geometry"/>
                </mxCell>
                <mxCell id="33" value="最后激活时间" style="rounded=0;whiteSpace=wrap;html=1;snapToPoint=1;direction=east;" vertex="1" parent="1">
                    <mxGeometry x="353" y="840" width="120" height="60" as="geometry"/>
                </mxCell>
                <mxCell id="35" value="" style="edgeStyle=none;html=1;snapToPoint=1;" edge="1" parent="1" source="34" target="33">
                    <mxGeometry relative="1" as="geometry"/>
                </mxCell>
                <mxCell id="34" value="用户交互" style="whiteSpace=wrap;html=1;snapToPoint=1;direction=east;" vertex="1" parent="1">
                    <mxGeometry x="354" y="720" width="120" height="50" as="geometry"/>
                </mxCell>
                <mxCell id="39" value="" style="edgeStyle=none;html=1;snapToPoint=1;" edge="1" parent="1" source="36" target="38">
                    <mxGeometry relative="1" as="geometry"/>
                </mxCell>
                <mxCell id="36" value="空闲时间大于阈值" style="whiteSpace=wrap;html=1;rounded=0;snapToPoint=1;direction=east;" vertex="1" parent="1">
                    <mxGeometry x="353" y="960" width="120" height="60" as="geometry"/>
                </mxCell>
                <mxCell id="38" value="暂停计时" style="whiteSpace=wrap;html=1;rounded=0;snapToPoint=1;direction=east;" vertex="1" parent="1">
                    <mxGeometry x="353" y="1080" width="120" height="60" as="geometry"/>
                </mxCell>
                <mxCell id="40" value="" style="edgeStyle=none;orthogonalLoop=1;jettySize=auto;html=1;exitX=1;exitY=0.5;exitDx=0;exitDy=0;entryX=1;entryY=0.5;entryDx=0;entryDy=0;snapToPoint=1;" edge="1" parent="1" source="38" target="34">
                    <mxGeometry width="100" relative="1" as="geometry">
                        <mxPoint x="550" y="1110" as="sourcePoint"/>
                        <mxPoint x="650" y="1110" as="targetPoint"/>
                        <Array as="points">
                            <mxPoint x="570" y="1110"/>
                            <mxPoint x="570" y="940"/>
                            <mxPoint x="570" y="745"/>
                        </Array>
                    </mxGeometry>
                </mxCell>
                <mxCell id="43" style="edgeStyle=none;html=1;entryX=0;entryY=0.617;entryDx=0;entryDy=0;entryPerimeter=0;" edge="1" parent="1" source="24" target="38">
                    <mxGeometry relative="1" as="geometry">
                        <Array as="points">
                            <mxPoint x="413" y="700"/>
                            <mxPoint x="260" y="700"/>
                            <mxPoint x="260" y="1117"/>
                        </Array>
                    </mxGeometry>
                </mxCell>
                <mxCell id="48" value="" style="edgeStyle=none;orthogonalLoop=1;jettySize=auto;html=1;entryX=0;entryY=0.5;entryDx=0;entryDy=0;exitX=0;exitY=0.5;exitDx=0;exitDy=0;" edge="1" parent="1" source="38" target="17">
                    <mxGeometry width="100" relative="1" as="geometry">
                        <mxPoint x="10" y="840" as="sourcePoint"/>
                        <mxPoint x="110" y="840" as="targetPoint"/>
                        <Array as="points">
                            <mxPoint x="220" y="1110"/>
                            <mxPoint x="220" y="473"/>
                        </Array>
                    </mxGeometry>
                </mxCell>
                <mxCell id="49" value="" style="whiteSpace=wrap;html=1;" vertex="1" parent="1">
                    <mxGeometry x="860" y="50" width="120" height="60" as="geometry"/>
                </mxCell>
            </root>
        </mxGraphModel>
    </diagram>
</mxfile>